<svg width="38" height="38" viewBox="0 0 38 38" fill="none" xmlns="http://www.w3.org/2000/svg">
<path d="M32.6505 0.480589L1.77789 18.2858C-0.775042 19.7628 -0.530139 23.5406 2.2009 24.6613L10.6834 28.1719V34.436C10.6834 37.8798 15.0769 39.2974 17.1103 36.5587L20.3608 32.1723L28.6653 35.6012C29.1031 35.7794 29.5632 35.8684 30.0234 35.8684C30.6319 35.8684 31.233 35.7126 31.7748 35.4083C32.7247 34.8739 33.3778 33.9239 33.5485 32.8477L37.9567 4.10992C38.4094 1.13372 35.2183 -0.996378 32.6505 0.480589ZM14.2457 34.436V29.6414L16.9619 30.7621L14.2457 34.436ZM30.0234 32.3059L18.6094 27.593L29.0141 12.5784C29.8081 11.428 28.309 10.092 27.2552 11.0049L11.5592 24.6836L3.559 21.3734L34.4316 3.5607L30.0234 32.3059Z" fill="#0013F4"/>
</svg>
