<svg width="38" height="34" viewBox="0 0 38 34" fill="none" xmlns="http://www.w3.org/2000/svg">
<path d="M36.4542 8.65979L28.5566 1.63286C27.8938 1.04318 26.995 0.711914 26.0578 0.711914C25.1206 0.711914 24.2218 1.04318 23.559 1.63286L1.76605 21.0261C1.43673 21.3174 1.17563 21.6639 0.997869 22.0457C0.820108 22.4274 0.729224 22.8367 0.730482 23.2499V30.2784C0.730482 31.1127 1.10285 31.9127 1.76568 32.5026C2.4285 33.0925 3.32748 33.4239 4.26486 33.4239H33.9536C34.516 33.4239 35.0554 33.2251 35.4531 32.8711C35.8508 32.5172 36.0742 32.0372 36.0742 31.5366C36.0742 31.0361 35.8508 30.5561 35.4531 30.2021C35.0554 29.8482 34.516 29.6494 33.9536 29.6494H17.8722L36.4542 13.109C36.7825 12.8169 37.043 12.4701 37.2207 12.0884C37.3984 11.7067 37.4899 11.2976 37.4899 10.8844C37.4899 10.4712 37.3984 10.0621 37.2207 9.6804C37.043 9.29869 36.7825 8.95188 36.4542 8.65979ZM19.8161 10.3049L21.76 12.0349L9.21299 23.2012L7.26908 21.4712L19.8161 10.3049ZM4.97173 29.6494V24.7739L7.71441 27.2132L10.45 29.6494H4.97173ZM14.1611 27.6048L12.2172 25.8748L24.7642 14.7085L26.7082 16.4385L14.1611 27.6048ZM29.7124 13.7648L22.8203 7.63123L26.0614 4.74685L32.9534 10.8805L29.7124 13.7648Z" fill="#0013F4"/>
</svg>
