<?xml version="1.0" encoding="UTF-8"?>
<svg version="1.1" xmlns="http://www.w3.org/2000/svg" width="1074" height="570">
<path d="M0 0 C1.47941826 -0.00021904 1.47941826 -0.00021904 2.98872375 -0.0004425 C6.2242763 0.00024997 9.45977011 0.00801107 12.6953125 0.01586914 C14.94832325 0.01773568 17.2013344 0.01915847 19.4543457 0.02015686 C25.36603936 0.02396342 31.2777082 0.03377774 37.18939209 0.04486084 C43.22912256 0.05511505 49.26885707 0.05966306 55.30859375 0.06469727 C67.1458442 0.07540175 78.98307628 0.09245572 90.8203125 0.11352539 C88.37610054 10.73275304 85.7742237 21.28481395 82.8984375 31.79711914 C82.52182698 33.18290746 82.14552547 34.56877979 81.76950073 35.95472717 C80.96284874 38.92634327 80.15467761 41.89753991 79.34527588 44.8684082 C77.10231433 53.10286905 74.8716521 61.34066841 72.640625 69.57836914 C72.2879915 70.87999308 72.2879915 70.87999308 71.9282341 72.20791245 C66.46417897 92.38105743 61.07870497 112.57499564 55.70195007 132.77155304 C53.41164041 141.37408214 51.11988716 149.9762269 48.828125 158.57836914 C48.4503038 159.99659973 48.4503038 159.99659973 48.06484985 161.44348145 C44.69532778 174.09070279 41.31964603 186.73625526 37.93304253 199.37891388 C37.25024949 201.92899986 36.56842592 204.47934359 35.88673401 207.02972412 C33.86969961 214.57016997 31.84416976 222.1078829 29.77732563 229.63484955 C28.63168796 233.80736538 27.49212482 237.98152335 26.35546875 242.15649414 C26.12892042 242.98796211 25.90237209 243.81943008 25.66895866 244.67609406 C22.36673768 256.84428225 19.3884251 269.06495143 16.57138062 281.35404968 C14.91327646 288.57598928 13.17262344 295.77737014 11.4133358 302.97525883 C10.20929194 307.92721593 9.05277225 312.88061279 8.00512695 317.86819458 C1.24420597 349.88927459 1.24420597 349.88927459 -8.01688862 356.01536655 C-14.53380627 359.69268871 -21.54846437 361.63008428 -28.80783081 363.30627441 C-33.19159544 364.3557847 -37.21517387 365.94959457 -41.3671875 367.67211914 C-42.67257764 368.1649923 -43.98058438 368.65099746 -45.29125977 369.12963867 C-46.23982346 369.47674896 -46.23982346 369.47674896 -47.20755005 369.83087158 C-48.18375809 370.18734772 -48.18375809 370.18734772 -49.1796875 370.55102539 C-50.63667243 371.08722569 -52.09362104 371.62352471 -53.55053711 372.15991211 C-90.18893812 385.61002576 -127.03780889 398.02807218 -164.5546875 408.80102539 C-165.65268677 409.11756073 -166.75068604 409.43409607 -167.88195801 409.76022339 C-171.00805696 410.65915726 -174.13632915 411.55001103 -177.265625 412.43774414 C-178.20882599 412.70903137 -179.15202698 412.9803186 -180.12380981 413.25982666 C-181.43223343 413.62766266 -181.43223343 413.62766266 -182.76708984 414.00292969 C-183.52613617 414.21845993 -184.2851825 414.43399017 -185.06723022 414.65605164 C-187.1796875 415.11352539 -187.1796875 415.11352539 -191.1796875 415.11352539 C-188.62220804 403.99084452 -185.87005989 392.94269653 -182.890625 381.92602539 C-182.47484533 380.38051251 -182.05931617 378.83493222 -181.64401245 377.28929138 C-180.7525088 373.97328463 -179.85939163 370.65771852 -178.96496582 367.34249878 C-177.51523779 361.96881671 -176.06933287 356.59411023 -174.62402344 351.21923828 C-173.07868232 345.47292908 -171.53315378 339.7266708 -169.9864502 333.98072815 C-164.65910989 314.18905831 -159.35298597 294.39171829 -154.04876709 274.59384155 C-152.42108607 268.51867365 -150.79288063 262.44364637 -149.16455078 256.36865234 C-148.61613945 254.32261665 -148.0677284 252.27658089 -147.51931763 250.23054504 C-147.24693394 249.21432383 -146.97455025 248.19810261 -146.69391251 247.15108681 C-143.03500521 233.50003375 -139.37663757 219.8488361 -135.71875 206.19750977 C-135.43165916 205.12609804 -135.14456833 204.05468632 -134.84877777 202.95080757 C-133.40515685 197.56324794 -131.96160899 192.17566875 -130.51818848 186.78805542 C-127.72464404 176.36160299 -124.92953726 165.93557381 -122.13085938 155.51049805 C-121.07411087 151.57351528 -120.017486 147.63649934 -118.9609375 143.69946289 C-118.70656418 142.75169102 -118.45219086 141.80391914 -118.19010925 140.82742691 C-115.15841498 129.5291147 -112.14441525 118.2264297 -109.16287994 106.91477776 C-108.04208465 102.66706599 -106.91449636 98.42115029 -105.78796387 94.17495728 C-104.97101636 91.08247227 -104.16532603 87.98721986 -103.36035156 84.89160156 C-99.97798264 72.0498478 -96.17327265 59.5114546 -88.4921875 48.48852539 C-88.07138916 47.87227295 -87.65059082 47.25602051 -87.21704102 46.62109375 C-70.6764097 22.99901417 -46.48535353 6.5920414 -18.1796875 1.11352539 C-12.07661603 0.2005129 -6.16549859 -0.02420834 0 0 Z " fill="#5F43C7" transform="translate(652.1796875,-0.113525390625)"/>
<path d="M0 0 C1.47041388 2.94082775 0.47563034 4.65992304 -0.37329102 7.81054688 C-0.70367371 9.05064011 -1.0340564 10.29073334 -1.37445068 11.56840515 C-1.7508122 12.95188708 -2.12730176 14.33533419 -2.50390625 15.71875 C-2.89346632 17.17026834 -3.28238715 18.62195837 -3.67071533 20.07380676 C-4.73548536 24.0475841 -5.80906824 28.01893492 -6.88403702 31.98996353 C-8.02847203 36.22390655 -9.16460295 40.46007652 -10.30151367 44.69604492 C-12.22359812 51.85364842 -14.1502772 59.01000067 -16.08007812 66.16552734 C-18.86970917 76.5102777 -21.64778211 86.85810462 -24.421875 97.20703125 C-25.31899289 100.55363425 -26.21612495 103.90023346 -27.11328125 107.24682617 C-27.44667889 108.49053718 -27.44667889 108.49053718 -27.78681183 109.75937366 C-29.36763137 115.65562133 -30.95088161 121.55121305 -32.53515625 127.4465332 C-37.21986018 144.88173146 -41.88878891 162.32096156 -46.5286808 179.76814461 C-48.10569858 185.69651377 -49.68501588 191.62427096 -51.26414776 197.55207729 C-52.77378902 203.22048596 -54.27930612 208.88996915 -55.78172874 214.5602951 C-56.71586651 218.08189749 -57.65391834 221.60244905 -58.59296417 225.12274551 C-59.02409257 226.74221041 -59.45361721 228.36210335 -59.88130951 229.9824791 C-65.27419727 250.40692083 -71.44729861 268.29497248 -85 285 C-85.68707031 285.85335938 -86.37414062 286.70671875 -87.08203125 287.5859375 C-104.27776973 307.81246477 -129.05333955 320.24227008 -155.31122971 322.79391289 C-159.58697803 323.12163766 -163.84505861 323.13102885 -168.13134766 323.11352539 C-169.56731293 323.11374443 -169.56731293 323.11374443 -171.0322876 323.1139679 C-174.1595699 323.11327776 -177.28679075 323.10552796 -180.4140625 323.09765625 C-182.59695401 323.09578887 -184.77984595 323.09436648 -186.96273804 323.09336853 C-192.68041155 323.08956855 -198.39805927 323.07976002 -204.11572266 323.06866455 C-209.96125947 323.05839602 -215.8068005 323.05385929 -221.65234375 323.04882812 C-233.10157377 323.03813528 -244.55078473 323.02108943 -256 323 C-254.52202996 313.4862301 -252.05640999 304.27491189 -249.546875 294.99609375 C-249.09375424 293.30763973 -248.6410317 291.61907879 -248.18867493 289.93041992 C-246.96826529 285.37892418 -245.74246573 280.82889618 -244.51564407 276.27912521 C-243.22660238 271.49495266 -241.942502 266.70945428 -240.65795898 261.92407227 C-238.51832408 253.95525229 -236.3759005 245.98718671 -234.23193359 238.01953125 C-231.35125171 227.31266065 -228.4801534 216.6032398 -225.6126976 205.89282036 C-223.66313214 198.6111926 -221.71235897 191.3298882 -219.76185608 184.04851151 C-219.07258643 181.4751572 -218.38351344 178.90175029 -217.69445801 176.32833862 C-217.24976502 174.66802733 -216.80506299 173.00771846 -216.36035156 171.34741211 C-216.14413462 170.53976567 -215.92791767 169.73211924 -215.7051487 168.89999866 C-214.65566118 164.98258681 -213.60212328 161.06635202 -212.53927612 157.15254211 C-212.13429466 155.65999691 -211.7294367 154.16741819 -211.32470703 152.67480469 C-211.03012383 151.58856072 -211.03012383 151.58856072 -210.72958946 150.48037243 C-209.56676303 146.16975149 -208.44940229 141.85028661 -207.3701067 137.51801205 C-206.85488094 135.45759864 -206.3289637 133.40023434 -205.79917908 131.34352112 C-205.16040218 128.85243978 -204.54147434 126.35614311 -203.94703674 123.85411072 C-201.60368822 114.86652614 -201.60368822 114.86652614 -197.52709961 111.74755859 C-192.61720318 109.14086478 -192.61720318 109.14086478 -189.7578125 108.43359375 C-184.18582878 106.84109397 -179.1084905 104.40039532 -173.875 101.9375 C-171.81262588 100.99711971 -169.75012145 100.05702517 -167.6875 99.1171875 C-148.67414941 90.33261015 -130.0227406 80.73066754 -111.73681641 70.52441406 C-108.85522997 68.91936271 -105.96516543 67.33031086 -103.07421875 65.7421875 C-79.40664245 52.68908074 -56.60278546 38.55096165 -34.125 23.5625 C-33.22758087 22.96435486 -32.33016174 22.36620972 -31.4055481 21.74993896 C-20.80768997 14.6753085 -10.30970053 7.48912208 0 0 Z " fill="#5233AB" transform="translate(907,247)"/>
<path d="M0 0 C2.29213334 0.00373582 4.58426829 0.0065801 6.87640381 0.00857544 C12.87356062 0.01616707 18.87061869 0.03577667 24.86773682 0.0579834 C31.00165471 0.07853867 37.13558875 0.08759776 43.26953125 0.09765625 C55.27868893 0.11902719 67.28777371 0.15310848 79.296875 0.1953125 C78.80328932 5.45756693 78.1306561 10.46984953 76.72827148 15.58178711 C76.24259956 17.37243843 76.24259956 17.37243843 75.74711609 19.19926453 C75.38746249 20.49874565 75.02774443 21.79820893 74.66796875 23.09765625 C74.28608082 24.49716347 73.90486008 25.8968529 73.52424622 27.29670715 C72.70126202 30.31913992 71.87433835 33.34045569 71.04431152 36.36096191 C69.01225485 43.7573705 67.00160145 51.15961373 64.98861313 58.56122971 C64.26866539 61.20768198 63.54793867 63.85392135 62.82717896 66.50015259 C57.25084181 86.98660506 51.78713079 107.50305795 46.32555008 128.02034378 C45.30597666 131.85020867 44.28584796 135.67992553 43.26566219 139.50962734 C42.77183234 141.36363443 42.27811591 143.21767174 41.78451633 145.07174015 C40.60125306 149.51623798 39.41672304 153.96038838 38.22901917 158.40370178 C36.29134497 165.65849836 34.36008569 172.91406312 32.49673843 180.18836594 C31.76653777 183.03756579 31.02872587 185.88476937 30.29042816 188.73188019 C29.79584316 190.65421728 29.31365352 192.57973019 28.83184814 194.50531006 C28.53896912 195.63309875 28.24609009 196.76088745 27.94433594 197.92285156 C27.57257233 199.38902924 27.57257233 199.38902924 27.19329834 200.88482666 C26.296875 203.1953125 26.296875 203.1953125 23.296875 205.1953125 C21.36091614 205.7616272 21.36091614 205.7616272 19.12817383 206.21337891 C18.28034836 206.38792099 17.43252289 206.56246307 16.55900574 206.74229431 C15.63332291 206.92530594 14.70764008 207.10831757 13.75390625 207.296875 C12.77968216 207.49426773 11.80545807 207.69166046 10.80171204 207.89503479 C7.57259974 208.54547342 4.34130661 209.18403832 1.109375 209.8203125 C-0.56502655 210.15212021 -0.56502655 210.15212021 -2.27325439 210.4906311 C-46.79670113 219.29279024 -91.6247165 226.17960716 -136.7109375 231.390625 C-137.7594136 231.51581009 -137.7594136 231.51581009 -138.82907104 231.64352417 C-143.49225611 232.1652548 -148.02083494 232.22082565 -152.703125 232.1953125 C-149.90803432 219.98863747 -146.82783024 207.87731601 -143.58984375 195.78125 C-143.09793428 193.93628923 -142.60621971 192.09127649 -142.11468506 190.24621582 C-140.54372083 184.35325074 -138.96747386 178.46170521 -137.390625 172.5703125 C-136.84878977 170.54494649 -136.30697057 168.5195762 -135.76516724 166.49420166 C-133.59758363 158.39265633 -131.42902786 150.29137315 -129.25657654 142.19113159 C-126.71195323 132.70269609 -124.17227496 123.21306037 -121.6546278 113.71742821 C-120.12960931 107.96667372 -118.593069 102.21908815 -117.0506897 96.47296143 C-116.45338763 94.23970345 -115.86028967 92.00531594 -115.27182007 89.76971436 C-109.40413721 67.50104222 -101.9244227 49.11460063 -85.703125 32.1953125 C-85.00574219 31.43476563 -84.30835938 30.67421875 -83.58984375 29.890625 C-60.91326983 5.92890703 -31.67340865 -0.15225421 0 0 Z " fill="#6950DD" transform="translate(370.703125,226.8046875)"/>
<path d="M0 0 C1.52309029 -0.00021904 1.52309029 -0.00021904 3.07695007 -0.0004425 C6.41533586 0.00025119 9.75366504 0.00801812 13.09204102 0.01586914 C15.41374176 0.01773525 17.73544289 0.01915824 20.05714417 0.02015686 C26.15462337 0.02396685 32.25207858 0.03378415 38.34954834 0.04486084 C44.57686031 0.05510763 50.80417617 0.05966148 57.03149414 0.06469727 C69.24048903 0.0754078 81.44946615 0.09246595 93.65844727 0.11352539 C90.93175516 11.99261957 87.95875293 23.78776637 84.81469727 35.56274414 C84.35899628 37.27606118 83.90347447 38.98942589 83.44812012 40.70283508 C82.50167155 44.26209198 81.55361309 47.82091446 80.60424805 51.37939453 C79.3982325 55.90009248 78.19551161 60.42165871 76.99390411 64.94353008 C76.05631998 68.47090464 75.11738659 71.99791893 74.17802429 75.52482033 C73.73443956 77.19060791 73.2911616 78.85647722 72.84822083 80.52243614 C71.64885006 85.03121305 70.43883441 89.53687571 69.21609688 94.03937149 C68.66450572 96.09099123 68.12971951 98.14646973 67.59666443 100.20297241 C67.26248001 101.45164093 66.92829559 102.70030945 66.58398438 103.98681641 C66.29881454 105.07599869 66.01364471 106.16518097 65.71983337 107.28736877 C63.9370196 112.03447344 60.77146053 114.51268215 56.72094727 117.36352539 C55.96096436 117.94231445 55.20098145 118.52110352 54.41796875 119.11743164 C52.88931212 120.27722412 51.34981541 121.42288764 49.79907227 122.55297852 C47.93379917 123.91278983 46.10184826 125.30144302 44.28344727 126.72290039 C42.22762628 128.32769942 40.16098601 129.91872635 38.08422852 131.49633789 C35.51981462 133.44532288 32.98170803 135.42513183 30.45141602 137.41821289 C21.07369086 144.79677106 11.54380831 151.85663964 1.7409668 158.65893555 C-0.30939251 160.09106225 -2.34505271 161.54173295 -4.37670898 163.00024414 C-16.12068097 171.41640472 -28.18863177 179.30277312 -40.34155273 187.11352539 C-41.14818359 187.63414551 -41.95481445 188.15476562 -42.78588867 188.69116211 C-67.50923475 204.62526935 -93.06092337 219.08354114 -118.96655273 232.98852539 C-119.57264374 233.31394318 -120.17873474 233.63936096 -120.80319214 233.97463989 C-139.70468017 244.11352539 -139.70468017 244.11352539 -142.34155273 244.11352539 C-139.52480687 231.77306282 -136.38369952 219.54268075 -133.07983398 207.32446289 C-132.57084466 205.43402854 -132.06209753 203.54352896 -131.55357361 201.65296936 C-130.20232509 196.63217949 -128.84777151 191.61228777 -127.49220276 186.59266281 C-126.08436693 181.37866084 -124.67838654 176.16415853 -123.2722168 170.94970703 C-121.57582512 164.65917627 -119.87922721 158.3687018 -118.18136597 152.0785675 C-114.99841363 140.28309848 -111.83364797 128.4830131 -108.69370079 116.67602539 C-107.53227601 112.31179031 -106.366597 107.94868951 -105.20079899 103.58562088 C-104.31528491 100.26986317 -103.43274309 96.95337597 -102.55728149 93.63494873 C-101.60226034 90.02028828 -100.6371148 86.40847297 -99.66967773 82.79711914 C-99.40299789 81.77626724 -99.13631805 80.75541534 -98.86155701 79.70362854 C-91.19237926 51.30085494 -73.56363631 28.09298864 -48.37866211 12.93188477 C-33.31802063 4.35798019 -17.33796042 -0.06580186 0 0 Z " fill="#6A52E0" transform="translate(860.341552734375,74.886474609375)"/>
<path d="M0 0 C-1.19929153 7.06241751 -2.65483968 13.97924156 -4.50268555 20.89916992 C-4.74532639 21.82117188 -4.98796722 22.74317383 -5.23796082 23.69311523 C-6.03273102 26.70686466 -6.83413029 29.71879261 -7.63671875 32.73046875 C-8.20002958 34.85117777 -8.7633279 36.97189011 -9.32661438 39.09260559 C-10.50595751 43.52724256 -11.68929797 47.96079284 -12.87475586 52.39379883 C-14.38126633 58.03082187 -15.87191722 63.67190775 -17.35876751 69.31414318 C-18.51613632 73.69464672 -19.68505947 78.07200912 -20.85700417 82.44863319 C-21.41090648 84.52480066 -21.96066769 86.60207814 -22.50592613 88.68053246 C-28.45724714 111.33012217 -36.44610821 130.96801747 -53 148 C-53.61101562 148.67289063 -54.22203125 149.34578125 -54.8515625 150.0390625 C-72.15082488 168.51614699 -97.3614277 179.17912221 -122.47317886 180.08967781 C-125.02646243 180.1215458 -127.5778891 180.12395268 -130.13134766 180.11352539 C-131.56731293 180.11374443 -131.56731293 180.11374443 -133.0322876 180.1139679 C-136.1595699 180.11327776 -139.28679075 180.10552796 -142.4140625 180.09765625 C-144.59695401 180.09578887 -146.77984595 180.09436648 -148.96273804 180.09336853 C-154.68041155 180.08956855 -160.39805927 180.07976002 -166.11572266 180.06866455 C-171.96125947 180.05839602 -177.8068005 180.05385929 -183.65234375 180.04882812 C-195.10157377 180.03813528 -206.55078473 180.02108943 -218 180 C-217.35993582 173.53755704 -215.95850812 167.49290973 -214.27197266 161.22875977 C-213.85470161 159.65398361 -213.85470161 159.65398361 -213.42900085 158.0473938 C-212.51250114 154.59400597 -211.58844661 151.14269123 -210.6640625 147.69140625 C-210.02211228 145.28069481 -209.3805471 142.86988081 -208.73934937 140.45896912 C-207.22415865 134.76688903 -205.70389031 129.07618284 -204.18151128 123.38602155 C-202.62831002 117.57883243 -201.08279687 111.76961337 -199.5379734 105.96019077 C-198.21390476 100.9829307 -196.88691785 96.00645249 -195.55897141 91.03022575 C-194.9243786 88.65147302 -194.29048208 86.27253442 -193.65730667 83.89340401 C-192.7699659 80.56171912 -191.8789106 77.23104958 -190.98681641 73.90063477 C-190.72800186 72.92633011 -190.46918732 71.95202545 -190.20252991 70.94819641 C-189.48885679 68.29255336 -188.75019591 65.64552963 -188 63 C-187.65215045 61.71012161 -187.65215045 61.71012161 -187.29727364 60.39418507 C-187.06025671 59.58479827 -186.82323978 58.77541147 -186.57904053 57.9414978 C-186.37687801 57.22733892 -186.1747155 56.51318005 -185.96642685 55.77737999 C-184.65755066 53.37019277 -183.28815532 52.93427714 -180.74853516 52.03540039 C-178.93786555 51.59952858 -177.11659107 51.20633155 -175.2890625 50.84765625 C-174.30686737 50.62151642 -173.32467224 50.39537659 -172.31271362 50.16238403 C-170.19646003 49.67977116 -168.07607978 49.21497776 -165.95239258 48.76620483 C-162.58367891 48.05376107 -159.22843839 47.29531859 -155.87304688 46.52270508 C-151.35075339 45.48248503 -146.82567086 44.45631193 -142.29785156 43.44042969 C-133.97700824 41.55638851 -125.72979202 39.43308018 -117.5 37.1875 C-116.78122681 36.99227753 -116.06245361 36.79705505 -115.32189941 36.59591675 C-77.98859435 26.41217587 -40.49061097 15.20559101 -4.50292969 0.90478516 C-2 0 -2 0 0 0 Z " fill="#4F2FA4" transform="translate(638,390)"/>
<path d="M0 0 C9.30175594 7.19875025 17.42807833 20.23347956 19 32 C20.42987361 50.06692158 17.53484091 64.38420992 5.81640625 78.66015625 C-4.83982596 90.26127605 -18.55594192 94.91008971 -33.9375 96.375 C-44.02210419 95.85562124 -53.22929565 93.59400281 -61.73046875 88.109375 C-63.88132594 86.83605409 -63.88132594 86.83605409 -66.015625 87.078125 C-68.67472483 88.31345484 -70.43567382 89.98179262 -72.5625 92 C-76.04224641 95.22575032 -79.55910086 98.33034073 -83.25 101.3125 C-87.50879841 104.75667593 -91.67287826 108.2901139 -95.8125 111.875 C-102.70063723 117.81560751 -109.79299843 123.45281559 -117 129 C-117.64275879 129.49580566 -118.28551758 129.99161133 -118.94775391 130.50244141 C-123.18416846 133.7670029 -127.4339414 137.01356296 -131.69335938 140.24804688 C-133.26348142 141.44059512 -134.83244822 142.63466557 -136.40039062 143.83007812 C-147.64796041 152.39752802 -159.0698177 160.6081512 -170.79638672 168.50634766 C-172.86636234 169.90941777 -174.92232454 171.33014143 -176.97265625 172.76171875 C-203.9458547 191.5867635 -232.31892751 208.5938384 -261.14013672 224.42382812 C-263.7592684 225.86732429 -266.36741211 227.32851227 -268.97265625 228.796875 C-299.01712161 245.61401063 -330.17246874 260.52232868 -361.81549072 274.06433105 C-363.99874603 274.9994629 -366.1799339 275.93928661 -368.36083984 276.87988281 C-457.87546003 315.40869569 -551.88910102 342.92082614 -952 393 C-953.94036133 393.02489502 -953.94036133 393.02489502 -955.91992188 393.05029297 C-971.41062374 393.21777119 -986.88920473 392.92099555 -1002.375 392.5625 C-1003.24399933 392.5429425 -1004.11299866 392.52338501 -1005.0083313 392.50323486 C-1015.69715198 392.25643026 -1026.33849652 391.81864757 -1037 391 C-1037 390.67 -1037 390.34 -1037 390 C-1036.03805725 390.00444122 -1035.0761145 390.00888245 -1034.08502197 390.01345825 C-966.51242969 390.46059499 -966.51242969 390.46059499 -899 388 C-897.41602417 387.90525391 -897.41602417 387.90525391 -895.80004883 387.80859375 C-796.74372944 381.79669664 -698.47468182 367.21848039 -602.10656738 343.5177002 C-600.11163991 343.0274361 -598.11590147 342.54047534 -596.12011719 342.05371094 C-559.93594399 333.17762505 -524.16512898 322.48299551 -488.94433594 310.35107422 C-485.25576907 309.08270085 -481.55520945 307.85260773 -477.8515625 306.62890625 C-445.58825221 295.8812876 -414.03071645 282.88563329 -383 269 C-381.53530273 268.3493457 -381.53530273 268.3493457 -380.04101562 267.68554688 C-341.9644245 250.73058854 -304.64661498 231.97743382 -268.81738281 210.67041016 C-266.01839527 209.01090645 -263.21009925 207.36839203 -260.3984375 205.73046875 C-212.77147624 177.92639427 -167.8189704 145.82568965 -125.83129883 110.0793457 C-122.47241141 107.22491203 -119.06785835 104.44076506 -115.625 101.6875 C-109.63608578 96.82095916 -104.06826805 91.53284945 -98.4609375 86.23828125 C-95.84439595 83.77320885 -93.17891975 81.38903056 -90.4375 79.0625 C-86.88132759 76.01212892 -83.960982 72.62720295 -81 69 C-81.34933594 68.18015625 -81.69867187 67.3603125 -82.05859375 66.515625 C-82.51363281 65.43796875 -82.96867188 64.3603125 -83.4375 63.25 C-83.88996094 62.18265625 -84.34242188 61.1153125 -84.80859375 60.015625 C-89.29369046 48.6631835 -88.48670455 33.14529867 -84.32421875 21.85546875 C-77.09592267 6.26878901 -66.15190895 -3.03801253 -50.32421875 -9.23828125 C-32.97542271 -14.92402113 -14.56329417 -10.16287435 0 0 Z " fill="#F98833" transform="translate(1055,83)"/>
<path d="M0 0 C-8.50756757 38.67584992 -18.75805488 73.84303015 -53.8125 96.6875 C-76.71844469 111.15506604 -99.64343052 113.33003226 -126 113.1953125 C-128.17431507 113.19157322 -130.34863185 113.18873058 -132.52294922 113.18673706 C-138.19125177 113.17917257 -143.85944861 113.15958746 -149.52770996 113.1373291 C-155.33356294 113.11671419 -161.13943332 113.10770219 -166.9453125 113.09765625 C-178.29692095 113.07633343 -189.64845161 113.0422864 -201 113 C-198.303476 101.2466473 -195.36098684 89.57935183 -192.234375 77.93359375 C-191.79146661 76.27643116 -191.3487831 74.61920846 -190.90631104 72.96192932 C-189.75779942 68.66253916 -188.60629677 64.36395599 -187.45410156 60.06555176 C-186.27222892 55.65422441 -185.09328033 51.24211574 -183.9140625 46.83007812 C-181.61218562 38.21929852 -179.30713826 29.60937127 -177 21 C-176.29750122 20.94037582 -175.59500244 20.88075165 -174.87121582 20.81932068 C-118.58345865 16.0252138 -62.37378721 10.36722538 -6.72119141 0.41357422 C-4 0 -4 0 0 0 Z " fill="#44218F" transform="translate(389,457)"/>
<path d="M0 0 C1.47941826 -0.00021904 1.47941826 -0.00021904 2.98872375 -0.0004425 C6.2242763 0.00024997 9.45977011 0.00801107 12.6953125 0.01586914 C14.94832325 0.01773568 17.2013344 0.01915847 19.4543457 0.02015686 C25.36603936 0.02396342 31.2777082 0.03377774 37.18939209 0.04486084 C43.22912256 0.05511505 49.26885707 0.05966306 55.30859375 0.06469727 C67.1458442 0.07540175 78.98307628 0.09245572 90.8203125 0.11352539 C90.37096363 2.24044336 89.91054777 4.36502578 89.4453125 6.48852539 C89.19007813 7.67188477 88.93484375 8.85524414 88.671875 10.07446289 C87.8203125 13.11352539 87.8203125 13.11352539 85.8203125 15.11352539 C83.3860892 15.32038721 81.06311632 15.40403628 78.62695312 15.40063477 C77.51408684 15.41088432 77.51408684 15.41088432 76.3787384 15.42134094 C74.76203961 15.43495606 73.1452974 15.44399189 71.52854919 15.4490509 C68.9525169 15.45735288 66.376837 15.47788149 63.80090332 15.50158691 C58.30742593 15.54989859 52.8139117 15.58264425 47.3203125 15.61352539 C41.00430259 15.64943166 34.68845782 15.69201157 28.37260437 15.74946594 C25.86609467 15.76916983 23.35971942 15.77778684 20.85314941 15.7857666 C7.24624733 15.87535849 -7.38896285 15.97617254 -20.3046875 20.67602539 C-21.03494141 20.9314209 -21.76519531 21.18681641 -22.51757812 21.44995117 C-34.6666219 25.91281173 -45.45067402 32.6160326 -55.1796875 41.11352539 C-55.86160156 41.66395508 -56.54351563 42.21438477 -57.24609375 42.78149414 C-78.72644969 60.47861714 -86.77325103 85.61460903 -93.4296875 111.48852539 C-94.08521769 113.9926495 -94.74221715 116.49638941 -95.40063477 118.99975586 C-96.71817211 124.01458501 -98.02908468 129.03106736 -99.33447266 134.04907227 C-101.65443835 142.95271626 -104.04155012 151.83787414 -106.43850708 160.72103882 C-107.54655276 164.83120621 -108.64805805 168.94312447 -109.75 173.05493164 C-110.93979852 177.49261419 -112.13006662 181.93016747 -113.32324219 186.36694336 C-117.03911747 200.18507352 -120.68306846 214.01263326 -124.10058594 227.90795898 C-125.31411038 232.79951122 -126.583298 237.65781154 -128.04248047 242.48217773 C-128.27338379 243.24739746 -128.50428711 244.01261719 -128.7421875 244.80102539 C-129.0118634 245.68468529 -129.0118634 245.68468529 -129.2869873 246.5861969 C-130.85175054 251.79790671 -132.13503042 257.04169479 -133.3515625 262.34399414 C-136.36982225 275.23106416 -139.85156462 287.98800382 -143.32828903 300.75750732 C-144.24874196 304.14113892 -145.16546579 307.52578013 -146.08227539 310.91040039 C-146.26968513 311.6022279 -146.45709486 312.2940554 -146.65018368 313.00684738 C-147.03376285 314.42284366 -147.41733152 315.83884278 -147.80088997 317.25484467 C-148.38603095 319.41446645 -148.97159188 321.57397401 -149.55723572 323.73345947 C-152.46206409 334.44726279 -155.34883671 345.16585005 -158.2265625 355.88696289 C-158.43281061 356.65529072 -158.63905872 357.42361855 -158.85155678 358.21522903 C-160.67057471 364.99206852 -162.48850893 371.76919857 -164.30599976 378.54644775 C-165.24366257 382.04280235 -166.18184591 385.53901693 -167.1203537 389.03514481 C-167.62830212 390.92804653 -168.1356034 392.82112188 -168.6428833 394.71420288 C-169.23477352 396.91915078 -169.8304577 399.12308609 -170.43109131 401.32566833 C-170.88586105 403.0192824 -171.32426858 404.71755488 -171.73248291 406.42298889 C-172.20581055 408.33642578 -172.20581055 408.33642578 -173.1796875 411.11352539 C-176.296875 412.67211914 -176.296875 412.67211914 -180.0546875 413.55102539 C-181.28960937 413.85911133 -182.52453125 414.16719727 -183.796875 414.48461914 C-187.1796875 415.11352539 -187.1796875 415.11352539 -191.1796875 415.11352539 C-188.62220804 403.99084452 -185.87005989 392.94269653 -182.890625 381.92602539 C-182.47484533 380.38051251 -182.05931617 378.83493222 -181.64401245 377.28929138 C-180.7525088 373.97328463 -179.85939163 370.65771852 -178.96496582 367.34249878 C-177.51523779 361.96881671 -176.06933287 356.59411023 -174.62402344 351.21923828 C-173.07868232 345.47292908 -171.53315378 339.7266708 -169.9864502 333.98072815 C-164.65910989 314.18905831 -159.35298597 294.39171829 -154.04876709 274.59384155 C-152.42108607 268.51867365 -150.79288063 262.44364637 -149.16455078 256.36865234 C-148.61613945 254.32261665 -148.0677284 252.27658089 -147.51931763 250.23054504 C-147.24693394 249.21432383 -146.97455025 248.19810261 -146.69391251 247.15108681 C-143.03500521 233.50003375 -139.37663757 219.8488361 -135.71875 206.19750977 C-135.43165916 205.12609804 -135.14456833 204.05468632 -134.84877777 202.95080757 C-133.40515685 197.56324794 -131.96160899 192.17566875 -130.51818848 186.78805542 C-127.72464404 176.36160299 -124.92953726 165.93557381 -122.13085938 155.51049805 C-121.07411087 151.57351528 -120.017486 147.63649934 -118.9609375 143.69946289 C-118.70656418 142.75169102 -118.45219086 141.80391914 -118.19010925 140.82742691 C-115.15841498 129.5291147 -112.14441525 118.2264297 -109.16287994 106.91477776 C-108.04208465 102.66706599 -106.91449636 98.42115029 -105.78796387 94.17495728 C-104.97101636 91.08247227 -104.16532603 87.98721986 -103.36035156 84.89160156 C-99.97798264 72.0498478 -96.17327265 59.5114546 -88.4921875 48.48852539 C-88.07138916 47.87227295 -87.65059082 47.25602051 -87.21704102 46.62109375 C-70.6764097 22.99901417 -46.48535353 6.5920414 -18.1796875 1.11352539 C-12.07661603 0.2005129 -6.16549859 -0.02420834 0 0 Z " fill="#9777E2" transform="translate(652.1796875,-0.113525390625)"/>
<path d="M0 0 C1.52309029 -0.00021904 1.52309029 -0.00021904 3.07695007 -0.0004425 C6.41533586 0.00025119 9.75366504 0.00801812 13.09204102 0.01586914 C15.41374176 0.01773525 17.73544289 0.01915824 20.05714417 0.02015686 C26.15462337 0.02396685 32.25207858 0.03378415 38.34954834 0.04486084 C44.57686031 0.05510763 50.80417617 0.05966148 57.03149414 0.06469727 C69.24048903 0.0754078 81.44946615 0.09246595 93.65844727 0.11352539 C93.18381977 2.4269613 92.70362448 4.73925558 92.22094727 7.05102539 C91.95411133 8.33879883 91.68727539 9.62657227 91.41235352 10.95336914 C90.65844727 14.11352539 90.65844727 14.11352539 89.65844727 15.11352539 C87.07075257 15.22273028 84.5087744 15.26775359 81.92016602 15.27124023 C81.1085199 15.27632095 80.29687378 15.28140167 79.46063232 15.28663635 C77.68892511 15.29737075 75.91720407 15.30597878 74.14547729 15.31275558 C71.32624284 15.32454529 68.50716154 15.34400729 65.68798828 15.36587524 C57.66842907 15.42742486 49.64887844 15.48117023 41.62915039 15.51489258 C36.72598419 15.53606513 31.82308572 15.57156391 26.92007446 15.61565018 C25.06412962 15.62965635 23.20813726 15.63849715 21.35214233 15.64170456 C-10.53139601 15.70253473 -37.30561043 25.11946662 -60.34155273 48.11352539 C-74.59376756 63.712599 -82.55628607 81.2449741 -87.46655273 101.55102539 C-87.7896615 102.85403551 -88.11387957 104.15677106 -88.43920898 105.45922852 C-89.08623892 108.05142107 -89.72922113 110.64448996 -90.36987305 113.23828125 C-91.95250625 119.55012469 -93.64358931 125.83176491 -95.34155273 132.11352539 C-95.60983887 133.10811768 -95.878125 134.10270996 -96.15454102 135.12744141 C-96.88038547 137.81117443 -97.61002411 140.49383666 -98.34155273 143.17602539 C-98.59791504 144.11792725 -98.85427734 145.0598291 -99.1184082 146.03027344 C-100.52340954 151.1762121 -101.9684417 156.30649636 -103.46655273 161.42602539 C-104.80998459 166.08467668 -105.97532461 170.75371625 -107.05249023 175.48071289 C-109.47948341 185.93773864 -112.20263453 196.31474454 -114.9777832 206.68408203 C-115.55942179 208.86711731 -116.13515781 211.05173282 -116.70532227 213.23779297 C-117.5397198 216.43568436 -118.39170071 219.62841682 -119.24780273 222.82055664 C-119.49896851 223.79652298 -119.75013428 224.77248932 -120.00891113 225.7780304 C-122.29241439 234.15039476 -122.29241439 234.15039476 -126.34155273 237.11352539 C-128.70795944 238.45795045 -131.02164414 239.68896105 -133.46655273 240.86352539 C-134.09948242 241.1793457 -134.73241211 241.49516602 -135.38452148 241.82055664 C-140.05979543 244.11352539 -140.05979543 244.11352539 -142.34155273 244.11352539 C-139.52480687 231.77306282 -136.38369952 219.54268075 -133.07983398 207.32446289 C-132.57084466 205.43402854 -132.06209753 203.54352896 -131.55357361 201.65296936 C-130.20232509 196.63217949 -128.84777151 191.61228777 -127.49220276 186.59266281 C-126.08436693 181.37866084 -124.67838654 176.16415853 -123.2722168 170.94970703 C-121.57582512 164.65917627 -119.87922721 158.3687018 -118.18136597 152.0785675 C-114.99841363 140.28309848 -111.83364797 128.4830131 -108.69370079 116.67602539 C-107.53227601 112.31179031 -106.366597 107.94868951 -105.20079899 103.58562088 C-104.31528491 100.26986317 -103.43274309 96.95337597 -102.55728149 93.63494873 C-101.60226034 90.02028828 -100.6371148 86.40847297 -99.66967773 82.79711914 C-99.40299789 81.77626724 -99.13631805 80.75541534 -98.86155701 79.70362854 C-91.19237926 51.30085494 -73.56363631 28.09298864 -48.37866211 12.93188477 C-33.31802063 4.35798019 -17.33796042 -0.06580186 0 0 Z " fill="#A285ED" transform="translate(860.341552734375,74.886474609375)"/>
<path d="M0 0 C2.29213334 0.00373582 4.58426829 0.0065801 6.87640381 0.00857544 C12.87356062 0.01616707 18.87061869 0.03577667 24.86773682 0.0579834 C31.00165471 0.07853867 37.13558875 0.08759776 43.26953125 0.09765625 C55.27868893 0.11902719 67.28777371 0.15310848 79.296875 0.1953125 C78.93183436 5.85973624 78.2414429 10.20234955 75.296875 15.1953125 C73.71192482 15.20411186 73.71192482 15.20411186 72.09495544 15.21308899 C62.07778907 15.27060504 52.06083378 15.34351413 42.04388332 15.43102741 C36.89556416 15.47552371 31.74732038 15.51482405 26.59887695 15.54174805 C21.61904841 15.56798981 16.63951324 15.60853538 11.65986824 15.65849876 C9.77157334 15.67502768 7.88322787 15.68662806 5.99487114 15.69292641 C-20.35613445 15.78960458 -44.59194981 22.45015792 -64.703125 40.1953125 C-65.93095703 41.22591797 -65.93095703 41.22591797 -67.18359375 42.27734375 C-80.84851786 54.03553426 -91.08337665 68.29127841 -96.63671875 85.47265625 C-96.88979294 86.24493057 -97.14286713 87.0172049 -97.40361023 87.81288147 C-100.30321259 96.82292773 -102.66941681 105.96648611 -105.015625 115.1328125 C-105.49350313 116.9795548 -105.971948 118.82615053 -106.45092773 120.67260742 C-107.87693074 126.17797807 -109.29179062 131.68616542 -110.703125 137.1953125 C-111.01117065 138.39746399 -111.01117065 138.39746399 -111.32543945 139.62390137 C-111.90462838 141.88464107 -112.48360359 144.14543538 -113.0625 146.40625 C-113.61562078 148.56616267 -114.16878568 150.72606397 -114.72210693 152.88592529 C-115.08448142 154.30063039 -115.44666401 155.71538466 -115.80865479 157.13018799 C-120.09160296 173.85740253 -124.61005459 190.52009108 -129.15313721 207.17822266 C-129.99248478 210.25654457 -130.83009393 213.33533946 -131.66796875 216.4140625 C-133.00995038 221.34198882 -134.35511084 226.26903309 -135.703125 231.1953125 C-141.313125 231.5253125 -146.923125 231.8553125 -152.703125 232.1953125 C-149.88850467 219.99058222 -146.82840952 207.87948002 -143.58984375 195.78125 C-143.09793428 193.93628923 -142.60621971 192.09127649 -142.11468506 190.24621582 C-140.54372083 184.35325074 -138.96747386 178.46170521 -137.390625 172.5703125 C-136.84878977 170.54494649 -136.30697057 168.5195762 -135.76516724 166.49420166 C-133.59758363 158.39265633 -131.42902786 150.29137315 -129.25657654 142.19113159 C-126.71195323 132.70269609 -124.17227496 123.21306037 -121.6546278 113.71742821 C-120.12960931 107.96667372 -118.593069 102.21908815 -117.0506897 96.47296143 C-116.45338763 94.23970345 -115.86028967 92.00531594 -115.27182007 89.76971436 C-109.40413721 67.50104222 -101.9244227 49.11460063 -85.703125 32.1953125 C-85.00574219 31.43476563 -84.30835938 30.67421875 -83.58984375 29.890625 C-60.91326983 5.92890703 -31.67340865 -0.15225421 0 0 Z " fill="#8669E0" transform="translate(370.703125,226.8046875)"/>
<path d="M0 0 C3 1 3 1 3 1 Z " fill="#FFCBA1" transform="translate(10,472)"/>
<path d="" fill="#FFCBA2" transform="translate(0,0)"/>
</svg>
