<svg width="47" height="42" viewBox="0 0 47 42" fill="none" xmlns="http://www.w3.org/2000/svg">
<rect width="47" height="42" rx="5" fill="#3F52FF"/>
<path d="M37.2496 8.43806C36.5205 7.75672 35.4413 7.50472 34.435 7.77139L10.9705 13.9701C9.90879 14.2394 9.15629 15.0087 8.95358 15.9847C8.7465 16.9794 9.46983 18.2434 10.4148 18.7714L17.7517 22.8674C18.5042 23.2887 19.4755 23.1834 20.0982 22.6127L28.4996 14.9314C28.9225 14.5301 29.6225 14.5301 30.0455 14.9314C30.4684 15.3167 30.4684 15.9447 30.0455 16.3447L21.6294 24.0261C21.0052 24.5967 20.8886 25.4821 21.348 26.1714L25.8309 32.9047C26.3559 33.7034 27.26 34.1581 28.2517 34.1581C28.3684 34.1581 28.4996 34.1581 28.6163 34.1434C29.7538 34.0114 30.658 33.3034 30.9934 32.3034L37.9496 11.0114C38.2559 10.1047 37.9788 9.11806 37.2496 8.43806Z" fill="white"/>
<path opacity="0.4" d="M19.7832 30.5234C20.2091 30.914 20.2091 31.5474 19.7832 31.938L17.7912 33.758C17.5782 33.954 17.2982 34.0514 17.0182 34.0514C16.7382 34.0514 16.4582 33.954 16.2453 33.758C15.818 33.3674 15.818 32.7354 16.2453 32.3447L18.2359 30.5234C18.6632 30.134 19.3559 30.134 19.7832 30.5234ZM18.6403 25.4727C19.0662 25.8634 19.0662 26.4967 18.6403 26.8874L16.6483 28.7074C16.4353 28.9034 16.1553 29.0007 15.8753 29.0007C15.5953 29.0007 15.3153 28.9034 15.1024 28.7074C14.6751 28.3167 14.6751 27.6847 15.1024 27.294L17.0931 25.4727C17.5203 25.0834 18.2131 25.0834 18.6403 25.4727ZM13.1553 23.8828C13.5811 24.2735 13.5811 24.9068 13.1553 25.2975L11.1632 27.1175C10.9503 27.3135 10.6703 27.4108 10.3903 27.4108C10.1103 27.4108 9.83026 27.3135 9.61734 27.1175C9.19005 26.7268 9.19005 26.0948 9.61734 25.7042L11.608 23.8828C12.0353 23.4935 12.728 23.4935 13.1553 23.8828Z" fill="white"/>
</svg>
