<svg width="17" height="23" viewBox="0 0 17 23" fill="none" xmlns="http://www.w3.org/2000/svg">
<path d="M5.41797 0.389648H2.29297C1.43018 0.389648 0.730469 1.08936 0.730469 1.95215V5.07715C0.730469 5.93994 1.43018 6.63965 2.29297 6.63965H5.41797C6.28076 6.63965 6.98047 5.93994 6.98047 5.07715V1.95215C6.98047 1.08936 6.28076 0.389648 5.41797 0.389648ZM5.41797 8.20215H2.29297C1.43018 8.20215 0.730469 8.90186 0.730469 9.76465V12.8896C0.730469 13.7524 1.43018 14.4521 2.29297 14.4521H5.41797C6.28076 14.4521 6.98047 13.7524 6.98047 12.8896V9.76465C6.98047 8.90186 6.28076 8.20215 5.41797 8.20215ZM5.41797 16.0146H2.29297C1.43018 16.0146 0.730469 16.7144 0.730469 17.5771V20.7021C0.730469 21.5649 1.43018 22.2646 2.29297 22.2646H5.41797C6.28076 22.2646 6.98047 21.5649 6.98047 20.7021V17.5771C6.98047 16.7144 6.28076 16.0146 5.41797 16.0146ZM14.793 0.389648H11.668C10.8052 0.389648 10.1055 1.08936 10.1055 1.95215V5.07715C10.1055 5.93994 10.8052 6.63965 11.668 6.63965H14.793C15.6558 6.63965 16.3555 5.93994 16.3555 5.07715V1.95215C16.3555 1.08936 15.6558 0.389648 14.793 0.389648ZM14.793 8.20215H11.668C10.8052 8.20215 10.1055 8.90186 10.1055 9.76465V12.8896C10.1055 13.7524 10.8052 14.4521 11.668 14.4521H14.793C15.6558 14.4521 16.3555 13.7524 16.3555 12.8896V9.76465C16.3555 8.90186 15.6558 8.20215 14.793 8.20215ZM14.793 16.0146H11.668C10.8052 16.0146 10.1055 16.7144 10.1055 17.5771V20.7021C10.1055 21.5649 10.8052 22.2646 11.668 22.2646H14.793C15.6558 22.2646 16.3555 21.5649 16.3555 20.7021V17.5771C16.3555 16.7144 15.6558 16.0146 14.793 16.0146Z" fill="black"/>
</svg>
